<svg xmlns="http://www.w3.org/2000/svg" xmlns:xlink="http://www.w3.org/1999/xlink" width="40" zoomAndPan="magnify" viewBox="0 0 30 30.000001" height="40" preserveAspectRatio="xMidYMid meet" version="1.0"><defs><g/><clipPath id="089c83968b"><path d="M 0.484375 0 L 29.515625 0 L 29.515625 29.03125 L 0.484375 29.03125 Z M 0.484375 0 " clip-rule="nonzero"/></clipPath></defs><g clip-path="url(#089c83968b)"><path fill="#ffffff" d="M 0.484375 0 L 29.515625 0 L 29.515625 29.03125 L 0.484375 29.03125 Z M 0.484375 0 " fill-opacity="1" fill-rule="nonzero"/><path fill="#000000" d="M 0.484375 0 L 29.515625 0 L 29.515625 29.03125 L 0.484375 29.03125 Z M 0.484375 0 " fill-opacity="1" fill-rule="nonzero"/></g><g fill="#ffffff" fill-opacity="1"><g transform="translate(4.377675, 15.645165)"><g><path d="M 2.40625 -4.53125 C 2.15625 -4.53125 1.972656 -4.492188 1.859375 -4.421875 C 1.753906 -4.347656 1.703125 -4.195312 1.703125 -3.96875 L 1.703125 -2.390625 C 2.140625 -2.742188 2.550781 -3.109375 2.9375 -3.484375 C 3.320312 -3.867188 3.515625 -4.148438 3.515625 -4.328125 C 3.515625 -4.398438 3.476562 -4.453125 3.40625 -4.484375 C 3.34375 -4.515625 3.242188 -4.53125 3.109375 -4.53125 L 3.109375 -4.65625 L 4.8125 -4.65625 L 4.8125 -4.53125 L 4.765625 -4.53125 C 4.628906 -4.519531 4.5 -4.484375 4.375 -4.421875 C 4.25 -4.367188 4.125 -4.285156 4 -4.171875 C 3.925781 -4.097656 3.800781 -3.96875 3.625 -3.78125 C 3.394531 -3.550781 3.191406 -3.347656 3.015625 -3.171875 C 2.847656 -3.003906 2.644531 -2.816406 2.40625 -2.609375 L 4.140625 -0.890625 C 4.367188 -0.671875 4.550781 -0.503906 4.6875 -0.390625 C 4.832031 -0.285156 4.96875 -0.210938 5.09375 -0.171875 C 5.21875 -0.140625 5.367188 -0.125 5.546875 -0.125 L 5.546875 0 L 3.140625 0 L 3.140625 -0.125 C 3.265625 -0.125 3.363281 -0.140625 3.4375 -0.171875 C 3.507812 -0.210938 3.546875 -0.273438 3.546875 -0.359375 C 3.546875 -0.410156 3.53125 -0.457031 3.5 -0.5 C 3.476562 -0.539062 3.425781 -0.601562 3.34375 -0.6875 L 1.703125 -2.3125 L 1.703125 -0.671875 C 1.703125 -0.472656 1.75 -0.332031 1.84375 -0.25 C 1.945312 -0.164062 2.117188 -0.125 2.359375 -0.125 L 2.359375 0 L 0.265625 0 L 0.265625 -0.125 C 0.535156 -0.125 0.71875 -0.160156 0.8125 -0.234375 C 0.914062 -0.316406 0.96875 -0.46875 0.96875 -0.6875 L 0.96875 -3.96875 C 0.96875 -4.195312 0.910156 -4.347656 0.796875 -4.421875 C 0.691406 -4.492188 0.515625 -4.53125 0.265625 -4.53125 L 0.265625 -4.65625 L 2.40625 -4.65625 Z M 2.40625 -4.53125 "/></g></g></g><g fill="#ffffff" fill-opacity="1"><g transform="translate(9.952882, 15.645165)"><g><path d="M 0.78125 -0.90625 L 2.515625 -4.859375 L 2.640625 -4.859375 L 4.46875 -0.640625 C 4.539062 -0.484375 4.601562 -0.367188 4.65625 -0.296875 C 4.71875 -0.222656 4.78125 -0.175781 4.84375 -0.15625 C 4.914062 -0.132812 5.015625 -0.125 5.140625 -0.125 L 5.140625 0 L 3.21875 0 L 3.21875 -0.125 C 3.382812 -0.125 3.503906 -0.148438 3.578125 -0.203125 C 3.660156 -0.265625 3.703125 -0.347656 3.703125 -0.453125 C 3.703125 -0.535156 3.675781 -0.640625 3.625 -0.765625 L 3.265625 -1.5625 L 1.390625 -1.5625 L 1 -0.671875 C 0.957031 -0.585938 0.9375 -0.507812 0.9375 -0.4375 C 0.9375 -0.226562 1.101562 -0.125 1.4375 -0.125 L 1.4375 0 L 0.09375 0 L 0.09375 -0.125 C 0.207031 -0.132812 0.296875 -0.164062 0.359375 -0.21875 C 0.429688 -0.269531 0.492188 -0.34375 0.546875 -0.4375 C 0.609375 -0.539062 0.6875 -0.695312 0.78125 -0.90625 Z M 3.15625 -1.828125 L 2.328125 -3.71875 L 1.5 -1.828125 Z M 3.15625 -1.828125 "/></g></g></g><g fill="#ffffff" fill-opacity="1"><g transform="translate(15.175826, 15.645165)"><g><path d="M 3.375 -1.09375 L 5 -4.65625 L 6.421875 -4.65625 L 6.421875 -4.53125 L 6.375 -4.53125 C 6.15625 -4.53125 5.992188 -4.492188 5.890625 -4.421875 C 5.785156 -4.347656 5.734375 -4.203125 5.734375 -3.984375 L 5.734375 -0.671875 C 5.734375 -0.472656 5.78125 -0.332031 5.875 -0.25 C 5.976562 -0.164062 6.148438 -0.125 6.390625 -0.125 L 6.421875 -0.125 L 6.421875 0 L 4.3125 0 L 4.3125 -0.125 L 4.375 -0.125 C 4.59375 -0.125 4.75 -0.164062 4.84375 -0.25 C 4.945312 -0.332031 5 -0.476562 5 -0.6875 L 5 -3.90625 L 4.984375 -3.90625 L 3.203125 0 L 3.078125 0 L 1.28125 -3.90625 L 1.28125 -0.671875 C 1.28125 -0.460938 1.328125 -0.316406 1.421875 -0.234375 C 1.523438 -0.160156 1.691406 -0.125 1.921875 -0.125 L 1.921875 0 L 0.296875 0 L 0.296875 -0.125 L 0.328125 -0.125 C 0.546875 -0.125 0.707031 -0.160156 0.8125 -0.234375 C 0.914062 -0.316406 0.96875 -0.46875 0.96875 -0.6875 L 0.96875 -3.859375 C 0.96875 -4.078125 0.910156 -4.238281 0.796875 -4.34375 C 0.691406 -4.445312 0.523438 -4.507812 0.296875 -4.53125 L 0.296875 -4.65625 L 1.71875 -4.65625 Z M 3.375 -1.09375 "/></g></g></g><g fill="#ffffff" fill-opacity="1"><g transform="translate(21.882332, 15.645165)"><g><path d="M 1.703125 -4.765625 C 1.859375 -4.765625 1.992188 -4.75 2.109375 -4.71875 C 2.222656 -4.6875 2.335938 -4.644531 2.453125 -4.59375 C 2.515625 -4.570312 2.570312 -4.550781 2.625 -4.53125 C 2.6875 -4.519531 2.738281 -4.515625 2.78125 -4.515625 C 2.882812 -4.515625 2.96875 -4.597656 3.03125 -4.765625 L 3.171875 -4.765625 L 3.171875 -3.21875 L 3.03125 -3.21875 C 3.007812 -3.457031 2.9375 -3.671875 2.8125 -3.859375 C 2.695312 -4.054688 2.550781 -4.210938 2.375 -4.328125 C 2.195312 -4.441406 2.003906 -4.5 1.796875 -4.5 C 1.578125 -4.5 1.390625 -4.429688 1.234375 -4.296875 C 1.078125 -4.171875 1 -4.007812 1 -3.8125 C 1 -3.59375 1.109375 -3.398438 1.328125 -3.234375 C 1.472656 -3.128906 1.6875 -2.992188 1.96875 -2.828125 C 2.207031 -2.679688 2.410156 -2.550781 2.578125 -2.4375 C 2.742188 -2.332031 2.894531 -2.21875 3.03125 -2.09375 C 3.15625 -1.96875 3.253906 -1.828125 3.328125 -1.671875 C 3.398438 -1.515625 3.4375 -1.351562 3.4375 -1.1875 C 3.4375 -0.957031 3.375 -0.742188 3.25 -0.546875 C 3.125 -0.347656 2.953125 -0.1875 2.734375 -0.0625 C 2.515625 0.0507812 2.273438 0.109375 2.015625 0.109375 C 1.847656 0.109375 1.695312 0.09375 1.5625 0.0625 C 1.4375 0.03125 1.304688 -0.0078125 1.171875 -0.0625 C 1.015625 -0.113281 0.898438 -0.140625 0.828125 -0.140625 C 0.703125 -0.140625 0.609375 -0.0546875 0.546875 0.109375 L 0.421875 0.109375 L 0.421875 -1.46875 L 0.546875 -1.46875 C 0.617188 -1.0625 0.769531 -0.738281 1 -0.5 C 1.226562 -0.269531 1.523438 -0.15625 1.890625 -0.15625 C 2.140625 -0.15625 2.347656 -0.222656 2.515625 -0.359375 C 2.691406 -0.503906 2.78125 -0.679688 2.78125 -0.890625 C 2.78125 -1.003906 2.757812 -1.101562 2.71875 -1.1875 C 2.675781 -1.28125 2.609375 -1.378906 2.515625 -1.484375 C 2.421875 -1.578125 2.296875 -1.675781 2.140625 -1.78125 C 1.984375 -1.882812 1.773438 -2.015625 1.515625 -2.171875 C 1.296875 -2.304688 1.125 -2.414062 1 -2.5 C 0.882812 -2.582031 0.796875 -2.648438 0.734375 -2.703125 C 0.503906 -2.941406 0.390625 -3.222656 0.390625 -3.546875 C 0.390625 -3.773438 0.445312 -3.976562 0.5625 -4.15625 C 0.675781 -4.34375 0.832031 -4.488281 1.03125 -4.59375 C 1.226562 -4.707031 1.453125 -4.765625 1.703125 -4.765625 Z M 1.703125 -4.765625 "/></g></g></g></svg>